<svg width="121" height="38" viewBox="0 0 121 38" fill="none" xmlns="http://www.w3.org/2000/svg">
<path d="M43.4877 17.0349C43.3724 17.0349 43.2781 16.9982 43.2047 16.9248C43.1313 16.8514 43.0946 16.7571 43.0946 16.6418V6.4211C43.0946 6.30579 43.1313 6.21145 43.2047 6.13807C43.2781 6.06469 43.3724 6.028 43.4877 6.028H47.7804C48.6295 6.028 49.3633 6.15903 49.9818 6.4211C50.6108 6.68317 51.0982 7.08152 51.4441 7.61614C51.8006 8.14027 51.9788 8.79545 51.9788 9.58165C51.9788 10.3783 51.8006 11.0388 51.4441 11.5629C51.0982 12.0766 50.6108 12.4592 49.9818 12.7108C49.3633 12.9623 48.6295 13.0881 47.7804 13.0881H45.6734V16.6418C45.6734 16.7571 45.6367 16.8514 45.5633 16.9248C45.4899 16.9982 45.3956 17.0349 45.2803 17.0349H43.4877ZM45.6262 11.1383H47.7018C48.2364 11.1383 48.6505 11.0073 48.944 10.7452C49.248 10.4832 49.4 10.0901 49.4 9.56593C49.4 9.10469 49.2637 8.72731 48.9912 8.43379C48.7291 8.14027 48.2993 7.99352 47.7018 7.99352H45.6262V11.1383Z" fill="white"/>
<path d="M55.6464 17.1921C55.0908 17.1921 54.5929 17.0873 54.1526 16.8777C53.7123 16.6575 53.3612 16.364 53.0991 15.9971C52.837 15.6302 52.706 15.2214 52.706 14.7706C52.706 14.0263 53.0048 13.4393 53.6023 13.0095C54.2103 12.5797 55.007 12.2862 55.9923 12.129L58.0522 11.8302V11.5472C58.0522 11.1383 57.9579 10.8239 57.7692 10.6037C57.5805 10.3836 57.2503 10.2735 56.7786 10.2735C56.4326 10.2735 56.1548 10.3417 55.9452 10.4779C55.7355 10.6142 55.573 10.7924 55.4577 11.0126C55.3739 11.1488 55.2533 11.217 55.0961 11.217H53.6023C53.487 11.217 53.3979 11.1855 53.335 11.1226C53.2721 11.0492 53.2459 10.9654 53.2563 10.871C53.2563 10.6928 53.3245 10.4832 53.4608 10.2421C53.597 10.001 53.8067 9.7651 54.0897 9.53448C54.3728 9.29338 54.7344 9.09421 55.1747 8.93696C55.615 8.77972 56.1548 8.7011 56.7943 8.7011C57.4547 8.7011 58.0208 8.77972 58.4925 8.93696C58.9642 9.09421 59.3416 9.31434 59.6246 9.59738C59.9077 9.88041 60.1173 10.2106 60.2536 10.588C60.3899 10.9549 60.458 11.3532 60.458 11.783V16.6418C60.458 16.7571 60.4213 16.8514 60.3479 16.9248C60.2746 16.9982 60.1802 17.0349 60.0649 17.0349H58.5239C58.4191 17.0349 58.33 16.9982 58.2566 16.9248C58.1832 16.8514 58.1466 16.7571 58.1466 16.6418V16.06C58.0103 16.2592 57.8268 16.4479 57.5962 16.6261C57.3656 16.7938 57.0878 16.9301 56.7628 17.0349C56.4483 17.1397 56.0762 17.1921 55.6464 17.1921ZM56.2754 15.5568C56.6213 15.5568 56.9306 15.4834 57.2031 15.3367C57.4757 15.1899 57.6906 14.9645 57.8478 14.6605C58.005 14.3565 58.0837 13.9739 58.0837 13.5127V13.2454L56.6213 13.4812C56.0552 13.5756 55.6412 13.7171 55.3791 13.9058C55.117 14.0945 54.986 14.3251 54.986 14.5977C54.986 14.7968 55.0437 14.9698 55.159 15.1166C55.2848 15.2633 55.4472 15.3734 55.6464 15.4468C55.8456 15.5201 56.0552 15.5568 56.2754 15.5568Z" fill="white"/>
<path d="M66.1985 20.4942C65.4228 20.4942 64.7781 20.3894 64.2645 20.1797C63.7508 19.9805 63.342 19.7342 63.038 19.4407C62.7445 19.1577 62.5348 18.8746 62.409 18.5916C62.2832 18.3085 62.2151 18.0884 62.2046 17.9312C62.1941 17.8159 62.2308 17.7215 62.3147 17.6481C62.3985 17.5748 62.4929 17.5381 62.5977 17.5381H64.2802C64.3745 17.5381 64.4532 17.559 64.5161 17.601C64.5894 17.6534 64.6471 17.7372 64.689 17.8525C64.7414 17.9783 64.8148 18.1094 64.9092 18.2457C65.0035 18.3924 65.145 18.513 65.3337 18.6073C65.5329 18.7017 65.795 18.7488 66.1199 18.7488C66.4868 18.7488 66.7908 18.6964 67.0319 18.5916C67.273 18.4868 67.4512 18.3085 67.5665 18.057C67.6923 17.8054 67.7552 17.4647 67.7552 17.0349V15.9814C67.5036 16.2539 67.1839 16.4793 66.7961 16.6575C66.4187 16.8357 65.9522 16.9248 65.3966 16.9248C64.8515 16.9248 64.3693 16.841 63.95 16.6732C63.5412 16.495 63.2005 16.2487 62.9279 15.9342C62.6554 15.6092 62.4457 15.2214 62.299 14.7706C62.1522 14.3199 62.0683 13.8114 62.0474 13.2454C62.0369 12.9623 62.0369 12.6846 62.0474 12.412C62.0683 11.8669 62.1522 11.369 62.299 10.9182C62.4457 10.4674 62.6554 10.0796 62.9279 9.75462C63.2005 9.41917 63.5412 9.16234 63.95 8.98414C64.3693 8.79545 64.8515 8.7011 65.3966 8.7011C65.9732 8.7011 66.4659 8.81117 66.8747 9.03131C67.2835 9.25145 67.619 9.524 67.881 9.84896V9.25145C67.881 9.14662 67.9177 9.05752 67.9911 8.98414C68.0645 8.90027 68.1536 8.85834 68.2584 8.85834H69.7994C69.9042 8.85834 69.9933 8.90027 70.0667 8.98414C70.1505 9.05752 70.1925 9.14662 70.1925 9.25145L70.2082 16.8148C70.2082 17.601 70.0562 18.2666 69.7522 18.8117C69.4482 19.3568 68.9974 19.7709 68.3999 20.0539C67.8129 20.3474 67.0791 20.4942 66.1985 20.4942ZM66.1199 15.0851C66.4973 15.0851 66.8013 15.0012 67.0319 14.8335C67.273 14.6553 67.4512 14.4352 67.5665 14.1731C67.6819 13.9006 67.7447 13.6175 67.7552 13.324C67.7657 13.2087 67.771 13.0462 67.771 12.8365C67.771 12.6164 67.7657 12.4487 67.7552 12.3334C67.7447 12.0399 67.6819 11.7621 67.5665 11.5C67.4512 11.2274 67.273 11.0073 67.0319 10.8396C66.8013 10.6719 66.4973 10.588 66.1199 10.588C65.7216 10.588 65.4071 10.6771 65.1765 10.8553C64.9458 11.023 64.7781 11.2484 64.6733 11.5314C64.5685 11.8145 64.5056 12.1237 64.4846 12.4592C64.4741 12.7108 64.4741 12.9571 64.4846 13.1982C64.5056 13.5441 64.5685 13.8586 64.6733 14.1417C64.7781 14.4247 64.9458 14.6553 65.1765 14.8335C65.4071 15.0012 65.7216 15.0851 66.1199 15.0851Z" fill="white"/>
<path d="M75.1927 17.1921C74.5847 17.1921 74.0449 17.0559 73.5732 16.7833C73.1119 16.5003 72.7503 16.0967 72.4882 15.5726C72.2366 15.0379 72.1108 14.3932 72.1108 13.6385V9.25145C72.1108 9.13614 72.1475 9.04179 72.2209 8.96841C72.2943 8.89503 72.3834 8.85834 72.4882 8.85834H74.155C74.2703 8.85834 74.3646 8.89503 74.438 8.96841C74.5114 9.04179 74.5481 9.13614 74.5481 9.25145V13.5441C74.5481 14.7182 75.0617 15.3052 76.089 15.3052C76.5817 15.3052 76.9696 15.1532 77.2526 14.8492C77.5461 14.5348 77.6929 14.0997 77.6929 13.5441V9.25145C77.6929 9.13614 77.7296 9.04179 77.803 8.96841C77.8763 8.89503 77.9707 8.85834 78.086 8.85834H79.7527C79.8576 8.85834 79.9467 8.89503 80.0201 8.96841C80.0934 9.04179 80.1301 9.13614 80.1301 9.25145V16.6418C80.1301 16.7571 80.0934 16.8514 80.0201 16.9248C79.9467 16.9982 79.8576 17.0349 79.7527 17.0349H78.2118C78.0965 17.0349 78.0021 16.9982 77.9287 16.9248C77.8554 16.8514 77.8187 16.7571 77.8187 16.6418V16.0286C77.5461 16.4059 77.195 16.6942 76.7652 16.8934C76.3354 17.0926 75.8112 17.1921 75.1927 17.1921Z" fill="white"/>
<path d="M85.7572 17.1921C84.5516 17.1921 83.5925 16.8567 82.8796 16.1858C82.1773 15.5149 81.8052 14.54 81.7632 13.2611C81.7632 13.1772 81.7632 13.0672 81.7632 12.9309C81.7632 12.7841 81.7632 12.6688 81.7632 12.585C81.8052 11.7778 81.9886 11.0859 82.3136 10.5094C82.6385 9.92234 83.0945 9.47683 83.6816 9.17283C84.2686 8.85834 84.9552 8.7011 85.7414 8.7011C86.622 8.7011 87.3558 8.88455 87.9428 9.25145C88.5403 9.60786 88.9858 10.1005 89.2794 10.7295C89.5834 11.348 89.7354 12.0608 89.7354 12.868V13.2297C89.7354 13.3345 89.6934 13.4236 89.6096 13.497C89.5362 13.5703 89.4471 13.607 89.3423 13.607H84.2005C84.2005 13.6175 84.2005 13.6385 84.2005 13.6699C84.2005 13.6909 84.2005 13.7119 84.2005 13.7328C84.211 14.0683 84.2738 14.3775 84.3892 14.6605C84.5149 14.9331 84.6879 15.1532 84.9081 15.321C85.1387 15.4887 85.4112 15.5726 85.7257 15.5726C85.9878 15.5726 86.2027 15.5359 86.3704 15.4625C86.5381 15.3891 86.6744 15.3 86.7792 15.1952C86.8945 15.0903 86.9784 15.0012 87.0308 14.9279C87.1252 14.823 87.1985 14.7601 87.251 14.7392C87.3138 14.7077 87.4082 14.692 87.534 14.692H89.1693C89.2741 14.692 89.358 14.7234 89.4209 14.7863C89.4943 14.8388 89.5257 14.9174 89.5152 15.0222C89.5047 15.1899 89.4156 15.3996 89.2479 15.6512C89.0907 15.8923 88.8548 16.1334 88.5403 16.3745C88.2258 16.6051 87.8327 16.799 87.361 16.9563C86.8998 17.1135 86.3652 17.1921 85.7572 17.1921ZM84.2005 12.1761H87.2824V12.1447C87.2824 11.7673 87.2195 11.4423 87.0937 11.1698C86.9784 10.8868 86.8054 10.6666 86.5748 10.5094C86.3442 10.3521 86.0664 10.2735 85.7414 10.2735C85.4165 10.2735 85.1387 10.3521 84.9081 10.5094C84.6774 10.6666 84.4992 10.8868 84.3734 11.1698C84.2581 11.4423 84.2005 11.7673 84.2005 12.1447V12.1761Z" fill="white"/>
<path d="M91.8732 17.0349C91.7684 17.0349 91.6741 16.9982 91.5902 16.9248C91.5168 16.8514 91.4801 16.7571 91.4801 16.6418V6.4211C91.4801 6.30579 91.5168 6.21145 91.5902 6.13807C91.6741 6.06469 91.7684 6.028 91.8732 6.028H93.3356C93.4928 6.028 93.6081 6.06993 93.6815 6.15379C93.7654 6.23765 93.823 6.30055 93.8545 6.34248L96.7477 11.673L99.6724 6.34248C99.6934 6.30055 99.7405 6.23765 99.8139 6.15379C99.8978 6.06993 100.018 6.028 100.176 6.028H101.638C101.753 6.028 101.848 6.06469 101.921 6.13807C101.994 6.21145 102.031 6.30579 102.031 6.4211V16.6418C102.031 16.7571 101.994 16.8514 101.921 16.9248C101.848 16.9982 101.753 17.0349 101.638 17.0349H100.034C99.9292 17.0349 99.8401 16.9982 99.7668 16.9248C99.6934 16.8514 99.6567 16.7571 99.6567 16.6418V10.2892L97.6597 14.0316C97.6073 14.1259 97.5392 14.2098 97.4553 14.2832C97.3714 14.3565 97.2614 14.3932 97.1251 14.3932H96.3861C96.2498 14.3932 96.1397 14.3565 96.0559 14.2832C95.972 14.2098 95.9039 14.1259 95.8514 14.0316L93.8545 10.2892V16.6418C93.8545 16.7571 93.8178 16.8514 93.7444 16.9248C93.671 16.9982 93.5819 17.0349 93.4771 17.0349H91.8732Z" fill="white"/>
<path d="M107.839 17.1921C106.633 17.1921 105.674 16.8567 104.961 16.1858C104.259 15.5149 103.887 14.54 103.845 13.2611C103.845 13.1772 103.845 13.0672 103.845 12.9309C103.845 12.7841 103.845 12.6688 103.845 12.585C103.887 11.7778 104.07 11.0859 104.395 10.5094C104.72 9.92234 105.176 9.47683 105.763 9.17283C106.35 8.85834 107.037 8.7011 107.823 8.7011C108.703 8.7011 109.437 8.88455 110.024 9.25145C110.622 9.60786 111.067 10.1005 111.361 10.7295C111.665 11.348 111.817 12.0608 111.817 12.868V13.2297C111.817 13.3345 111.775 13.4236 111.691 13.497C111.618 13.5703 111.528 13.607 111.424 13.607H106.282C106.282 13.6175 106.282 13.6385 106.282 13.6699C106.282 13.6909 106.282 13.7119 106.282 13.7328C106.292 14.0683 106.355 14.3775 106.471 14.6605C106.596 14.9331 106.769 15.1532 106.989 15.321C107.22 15.4887 107.493 15.5726 107.807 15.5726C108.069 15.5726 108.284 15.5359 108.452 15.4625C108.619 15.3891 108.756 15.3 108.861 15.1952C108.976 15.0903 109.06 15.0012 109.112 14.9279C109.207 14.823 109.28 14.7601 109.332 14.7392C109.395 14.7077 109.49 14.692 109.615 14.692H111.251C111.355 14.692 111.439 14.7234 111.502 14.7863C111.576 14.8388 111.607 14.9174 111.597 15.0222C111.586 15.1899 111.497 15.3996 111.329 15.6512C111.172 15.8923 110.936 16.1334 110.622 16.3745C110.307 16.6051 109.914 16.799 109.442 16.9563C108.981 17.1135 108.447 17.1921 107.839 17.1921ZM106.282 12.1761H109.364V12.1447C109.364 11.7673 109.301 11.4423 109.175 11.1698C109.06 10.8868 108.887 10.6666 108.656 10.5094C108.426 10.3521 108.148 10.2735 107.823 10.2735C107.498 10.2735 107.22 10.3521 106.989 10.5094C106.759 10.6666 106.581 10.8868 106.455 11.1698C106.339 11.4423 106.282 11.7673 106.282 12.1447V12.1761ZM105.291 7.67903C105.134 7.67903 105.055 7.60565 105.055 7.45889C105.055 7.37503 105.097 7.29117 105.181 7.20731L106.754 5.572C106.858 5.45669 106.947 5.38331 107.021 5.35186C107.105 5.32041 107.199 5.30469 107.304 5.30469H108.342C108.436 5.30469 108.52 5.32041 108.593 5.35186C108.677 5.38331 108.771 5.45669 108.876 5.572L110.449 7.20731C110.543 7.29117 110.59 7.37503 110.59 7.45889C110.59 7.60565 110.512 7.67903 110.354 7.67903H109.694C109.61 7.67903 109.521 7.67379 109.427 7.66331C109.332 7.64234 109.248 7.61089 109.175 7.56896L107.823 6.76703L106.471 7.56896C106.397 7.61089 106.313 7.64234 106.219 7.66331C106.125 7.67379 106.035 7.67903 105.952 7.67903H105.291Z" fill="white"/>
<path d="M116.612 17.1921C115.962 17.1921 115.401 17.1188 114.929 16.972C114.468 16.8148 114.091 16.6261 113.797 16.4059C113.514 16.1858 113.299 15.9657 113.153 15.7455C113.016 15.5149 112.943 15.321 112.933 15.1637C112.922 15.0484 112.959 14.9541 113.043 14.8807C113.126 14.8073 113.21 14.7706 113.294 14.7706H114.819C114.851 14.7706 114.882 14.7759 114.914 14.7863C114.945 14.7968 114.977 14.823 115.008 14.865C115.144 14.9593 115.286 15.0694 115.433 15.1952C115.579 15.3105 115.747 15.4101 115.936 15.4939C116.135 15.5778 116.381 15.6197 116.675 15.6197C117.021 15.6197 117.314 15.5516 117.555 15.4153C117.797 15.2686 117.917 15.0641 117.917 14.8021C117.917 14.6134 117.859 14.4561 117.744 14.3303C117.639 14.2046 117.435 14.0892 117.131 13.9844C116.827 13.8796 116.376 13.7643 115.779 13.6385C115.213 13.5127 114.73 13.345 114.332 13.1353C113.934 12.9257 113.635 12.6636 113.436 12.3491C113.237 12.0241 113.137 11.6363 113.137 11.1855C113.137 10.7767 113.263 10.3836 113.514 10.0062C113.776 9.62883 114.159 9.31958 114.662 9.07848C115.165 8.82689 115.794 8.7011 116.549 8.7011C117.126 8.7011 117.629 8.77448 118.059 8.92124C118.499 9.05752 118.866 9.23572 119.159 9.45586C119.453 9.66552 119.673 9.88565 119.82 10.1163C119.977 10.3364 120.061 10.5303 120.071 10.6981C120.082 10.8029 120.05 10.892 119.977 10.9654C119.904 11.0388 119.82 11.0754 119.725 11.0754H118.326C118.273 11.0754 118.226 11.0702 118.184 11.0597C118.142 11.0388 118.106 11.0125 118.074 10.9811C117.949 10.8972 117.817 10.8029 117.681 10.6981C117.555 10.5828 117.403 10.4832 117.225 10.3993C117.047 10.3154 116.816 10.2735 116.533 10.2735C116.187 10.2735 115.92 10.3521 115.731 10.5094C115.553 10.6561 115.464 10.8448 115.464 11.0754C115.464 11.2222 115.511 11.3585 115.606 11.4843C115.7 11.6101 115.894 11.7254 116.187 11.8302C116.481 11.935 116.926 12.0451 117.524 12.1604C118.237 12.2862 118.803 12.4749 119.222 12.7265C119.641 12.9781 119.94 13.2716 120.118 13.607C120.307 13.932 120.401 14.2832 120.401 14.6605C120.401 15.1532 120.255 15.5935 119.961 15.9814C119.668 16.3588 119.238 16.6575 118.672 16.8777C118.116 17.0873 117.43 17.1921 116.612 17.1921Z" fill="white"/>
<path d="M43.0841 33.545C43.0143 33.545 42.9548 33.524 42.9059 33.4821C42.864 33.4331 42.843 33.3737 42.843 33.3039V26.4586C42.843 26.3817 42.864 26.3223 42.9059 26.2804C42.9548 26.2315 43.0143 26.207 43.0841 26.207H43.6083C43.6921 26.207 43.755 26.228 43.797 26.2699C43.8389 26.3119 43.8634 26.3468 43.8703 26.3748L46.0927 30.6098L48.3255 26.3748C48.3395 26.3468 48.364 26.3119 48.3989 26.2699C48.4408 26.228 48.5037 26.207 48.5876 26.207H49.1012C49.1781 26.207 49.2375 26.2315 49.2794 26.2804C49.3284 26.3223 49.3528 26.3817 49.3528 26.4586V33.3039C49.3528 33.3737 49.3284 33.4331 49.2794 33.4821C49.2375 33.524 49.1781 33.545 49.1012 33.545H48.5876C48.5177 33.545 48.4583 33.524 48.4094 33.4821C48.3674 33.4331 48.3465 33.3737 48.3465 33.3039V28.1463L46.5959 31.5637C46.5679 31.6336 46.526 31.6895 46.4701 31.7314C46.4142 31.7664 46.3443 31.7839 46.2604 31.7839H45.9354C45.8446 31.7839 45.7712 31.7664 45.7153 31.7314C45.6664 31.6895 45.6245 31.6336 45.5895 31.5637L43.8389 28.1463V33.3039C43.8389 33.3737 43.8144 33.4331 43.7655 33.4821C43.7236 33.524 43.6677 33.545 43.5978 33.545H43.0841Z" fill="white"/>
<path d="M51.9834 35.5367C51.9275 35.5367 51.8786 35.5157 51.8367 35.4738C51.7947 35.4319 51.7738 35.3829 51.7738 35.327C51.7738 35.2991 51.7773 35.2711 51.7843 35.2432C51.7912 35.2152 51.8052 35.1803 51.8262 35.1383L52.6334 33.22L50.6311 28.4923C50.5962 28.4084 50.5787 28.349 50.5787 28.3141C50.5787 28.2512 50.5997 28.1988 50.6416 28.1568C50.6836 28.1149 50.736 28.0939 50.7989 28.0939H51.3125C51.3824 28.0939 51.4383 28.1114 51.4803 28.1463C51.5222 28.1813 51.5501 28.2232 51.5641 28.2721L53.1575 32.0879L54.7928 28.2721C54.8138 28.2232 54.8417 28.1813 54.8767 28.1463C54.9186 28.1114 54.978 28.0939 55.0549 28.0939H55.5476C55.6105 28.0939 55.6629 28.1149 55.7048 28.1568C55.7467 28.1988 55.7677 28.2477 55.7677 28.3036C55.7677 28.3385 55.7502 28.4014 55.7153 28.4923L52.7382 35.3585C52.7172 35.4074 52.6858 35.4493 52.6438 35.4843C52.6089 35.5192 52.553 35.5367 52.4761 35.5367H51.9834Z" fill="white"/>
<path d="M57.1806 33.545C57.1037 33.545 57.0443 33.524 57.0024 33.4821C56.9604 33.4331 56.9395 33.3737 56.9395 33.3039V26.4586C56.9395 26.3817 56.9604 26.3223 57.0024 26.2804C57.0443 26.2315 57.1037 26.207 57.1806 26.207H59.8432C60.3604 26.207 60.8076 26.2909 61.185 26.4586C61.5694 26.6263 61.8664 26.8779 62.076 27.2134C62.2857 27.5418 62.3905 27.9542 62.3905 28.4503C62.3905 28.9465 62.2857 29.3588 62.076 29.6873C61.8664 30.0158 61.5694 30.2639 61.185 30.4316C60.8076 30.5993 60.3604 30.6832 59.8432 30.6832H57.9878V33.3039C57.9878 33.3737 57.9633 33.4331 57.9144 33.4821C57.8724 33.524 57.813 33.545 57.7362 33.545H57.1806ZM57.9773 29.8026H59.7908C60.3079 29.8026 60.6958 29.6873 60.9544 29.4567C61.2129 29.2261 61.3422 28.8906 61.3422 28.4503C61.3422 28.0171 61.2164 27.6816 60.9649 27.444C60.7133 27.2064 60.3219 27.0876 59.7908 27.0876H57.9773V29.8026Z" fill="white"/>
<path d="M64.9466 33.6498C64.5972 33.6498 64.2792 33.5799 63.9927 33.4401C63.7061 33.3004 63.4755 33.1117 63.3008 32.8741C63.1261 32.6365 63.0387 32.3674 63.0387 32.0669C63.0387 31.5847 63.2344 31.2003 63.6258 30.9138C64.0171 30.6273 64.5273 30.4386 65.1562 30.3477L66.7182 30.1276V29.8236C66.7182 29.4881 66.6203 29.2261 66.4247 29.0374C66.236 28.8487 65.925 28.7543 65.4917 28.7543C65.1772 28.7543 64.9221 28.8172 64.7264 28.943C64.5378 29.0688 64.405 29.2296 64.3281 29.4252C64.2862 29.5301 64.2128 29.5825 64.108 29.5825H63.6362C63.5594 29.5825 63.5 29.5615 63.458 29.5196C63.4231 29.4707 63.4056 29.4148 63.4056 29.3519C63.4056 29.247 63.4441 29.1177 63.5209 28.964C63.6048 28.8102 63.7306 28.66 63.8983 28.5132C64.066 28.3665 64.2792 28.2442 64.5378 28.1463C64.8033 28.0415 65.1248 27.9891 65.5022 27.9891C65.9215 27.9891 66.2744 28.045 66.5609 28.1568C66.8475 28.2617 67.0711 28.4049 67.2318 28.5866C67.3996 28.7683 67.5184 28.9745 67.5882 29.2051C67.6651 29.4357 67.7036 29.6698 67.7036 29.9074V33.3039C67.7036 33.3737 67.6791 33.4331 67.6302 33.4821C67.5882 33.524 67.5323 33.545 67.4624 33.545H66.9802C66.9034 33.545 66.844 33.524 66.802 33.4821C66.7601 33.4331 66.7391 33.3737 66.7391 33.3039V32.8531C66.6483 32.9789 66.526 33.1047 66.3722 33.2305C66.2185 33.3493 66.0263 33.4506 65.7957 33.5345C65.5651 33.6114 65.282 33.6498 64.9466 33.6498ZM65.1667 32.8636C65.4533 32.8636 65.7153 32.8042 65.9529 32.6854C66.1905 32.5596 66.3757 32.3674 66.5085 32.1088C66.6483 31.8502 66.7182 31.5253 66.7182 31.1339V30.8404L65.5022 31.0186C65.006 31.0885 64.6321 31.2073 64.3805 31.375C64.1289 31.5358 64.0031 31.7419 64.0031 31.9935C64.0031 32.1892 64.059 32.3534 64.1709 32.4862C64.2897 32.612 64.4364 32.7063 64.6111 32.7692C64.7928 32.8321 64.978 32.8636 65.1667 32.8636Z" fill="white"/>
<path d="M70.0519 35.5367C69.9959 35.5367 69.947 35.5157 69.9051 35.4738C69.8632 35.4319 69.8422 35.3829 69.8422 35.327C69.8422 35.2991 69.8457 35.2711 69.8527 35.2432C69.8597 35.2152 69.8736 35.1803 69.8946 35.1383L70.7018 33.22L68.6996 28.4923C68.6646 28.4084 68.6472 28.349 68.6472 28.3141C68.6472 28.2512 68.6681 28.1988 68.7101 28.1568C68.752 28.1149 68.8044 28.0939 68.8673 28.0939H69.381C69.4508 28.0939 69.5068 28.1114 69.5487 28.1463C69.5906 28.1813 69.6186 28.2232 69.6325 28.2721L71.2259 32.0879L72.8612 28.2721C72.8822 28.2232 72.9102 28.1813 72.9451 28.1463C72.987 28.1114 73.0464 28.0939 73.1233 28.0939H73.616C73.6789 28.0939 73.7313 28.1149 73.7732 28.1568C73.8152 28.1988 73.8361 28.2477 73.8361 28.3036C73.8361 28.3385 73.8187 28.4014 73.7837 28.4923L70.8066 35.3585C70.7856 35.4074 70.7542 35.4493 70.7123 35.4843C70.6773 35.5192 70.6214 35.5367 70.5445 35.5367H70.0519Z" fill="white"/>
<path d="M21.4858 25.4448H20.9385V24.3423H19.8438V25.4448H15.4652V24.3423H14.3706V25.4448H13.8233C13.2157 25.4448 12.7341 25.9409 12.7341 26.5472L12.7286 34.2645C12.7286 34.5569 12.8439 34.8373 13.0492 35.0441C13.2545 35.2508 13.5329 35.367 13.8233 35.367H21.4858C22.0879 35.367 22.5805 34.8709 22.5805 34.2645V26.5472C22.5805 25.9409 22.0879 25.4448 21.4858 25.4448ZM21.4858 34.2645H13.8233V28.7522H21.4858V34.2645ZM16.0126 30.9571H14.9179V29.8546H16.0126V30.9571ZM18.2019 30.9571H17.1072V29.8546H18.2019V30.9571ZM20.3912 30.9571H19.2965V29.8546H20.3912V30.9571ZM16.0126 33.162H14.9179V32.0596H16.0126V33.162ZM18.2019 33.162H17.1072V32.0596H18.2019V33.162ZM20.3912 33.162H19.2965V32.0596H20.3912V33.162Z" fill="white"/>
<path d="M1.35483 38C0.957415 38 0.632255 37.8733 0.379353 37.62C0.126451 37.3667 0 37.041 0 36.6429V1.35714C0 0.959048 0.126451 0.633334 0.379353 0.380002C0.632255 0.126667 0.957415 0 1.35483 0H16.5289C19.5276 0 22.1289 0.470477 24.3328 1.41143C26.5728 2.31619 28.307 3.69143 29.5353 5.53714C30.7998 7.38286 31.4321 9.71714 31.4321 12.54C31.4321 15.3267 30.7998 17.6248 29.5353 19.4343C28.307 21.2438 26.5728 22.5829 24.3328 23.4514C22.1289 24.32 19.5276 24.7543 16.5289 24.7543H10.0799V36.6429C10.0799 37.041 9.93543 37.3667 9.6464 37.62C9.3935 37.8733 9.06834 38 8.67092 38H1.35483ZM9.91737 17.2629H16.258C17.8115 17.2629 19.0399 16.8648 19.9431 16.0686C20.8825 15.2724 21.3522 14.06 21.3522 12.4314C21.3522 11.0562 20.9547 9.8981 20.1599 8.95714C19.3651 8.01619 18.0644 7.54572 16.258 7.54572H9.91737V17.2629Z" fill="white"/>
</svg>
